<svg width="22" height="22" viewBox="0 0 22 22" fill="none" xmlns="http://www.w3.org/2000/svg">
<path d="M9.3775 16.005L17.16 8.2225L15.895 6.985L9.3775 13.5025L6.0775 10.2025L4.84 11.44L9.3775 16.005ZM11 22C9.49667 22 8.07583 21.7113 6.7375 21.1338C5.39917 20.5562 4.23042 19.7679 3.23125 18.7688C2.23208 17.7696 1.44375 16.6008 0.86625 15.2625C0.28875 13.9242 0 12.5033 0 11C0 9.47833 0.28875 8.04833 0.86625 6.71C1.44375 5.37167 2.23208 4.2075 3.23125 3.2175C4.23042 2.2275 5.39917 1.44375 6.7375 0.86625C8.07583 0.28875 9.49667 0 11 0C12.5217 0 13.9517 0.28875 15.29 0.86625C16.6283 1.44375 17.7925 2.2275 18.7825 3.2175C19.7725 4.2075 20.5562 5.37167 21.1338 6.71C21.7113 8.04833 22 9.47833 22 11C22 12.5033 21.7113 13.9242 21.1338 15.2625C20.5562 16.6008 19.7725 17.7696 18.7825 18.7688C17.7925 19.7679 16.6283 20.5562 15.29 21.1338C13.9517 21.7113 12.5217 22 11 22ZM11 20.35C13.6033 20.35 15.8125 19.4379 17.6275 17.6138C19.4425 15.7896 20.35 13.585 20.35 11C20.35 8.39667 19.4425 6.1875 17.6275 4.3725C15.8125 2.5575 13.6033 1.65 11 1.65C8.415 1.65 6.21042 2.5575 4.38625 4.3725C2.56208 6.1875 1.65 8.39667 1.65 11C1.65 13.585 2.56208 15.7896 4.38625 17.6138C6.21042 19.4379 8.415 20.35 11 20.35Z" fill="green"/>
</svg>
