<svg width="22" height="19" viewBox="0 0 22 19" fill="none" xmlns="http://www.w3.org/2000/svg">
<path d="M10.8941 18.1568V16.0083L17.4305 9.4718L19.5791 11.6204L13.0426 18.1568H10.8941ZM0 11.8019V9.98624H9.07841V11.8019H0ZM20.8803 10.3191L18.7318 8.17056L19.6094 7.29298C19.7708 7.13159 19.9826 7.05089 20.2448 7.05089C20.5071 7.05089 20.7189 7.13159 20.8803 7.29298L21.7579 8.17056C21.9193 8.33196 22 8.54379 22 8.80605C22 9.06832 21.9193 9.28015 21.7579 9.44154L20.8803 10.3191ZM0 6.8088V4.99312H14.2228V6.8088H0ZM0 1.81568V0H14.2228V1.81568H0Z" fill="black"/>
</svg>
