<svg width="22" height="25" viewBox="0 0 22 25" fill="none" xmlns="http://www.w3.org/2000/svg">
<path d="M0 24.3833V0L1.83333 1.83333L3.66667 0L5.5 1.83333L7.33333 0L9.16667 1.83333L11 0L12.8333 1.83333L14.6667 0L16.5 1.83333L18.3333 0L20.1667 1.83333L22 0V24.3833L20.1667 22.55L18.3333 24.3833L16.5 22.55L14.6667 24.3833L12.8333 22.55L11 24.3833L9.16667 22.55L7.33333 24.3833L5.5 22.55L3.66667 24.3833L1.83333 22.55L0 24.3833ZM3.575 17.8139H18.5472V15.9806H3.575V17.8139ZM3.575 13.1083H18.5472V11.275H3.575V13.1083ZM3.575 8.37222H18.5472V6.53889H3.575V8.37222ZM1.83333 21.2972H20.1667V3.08611H1.83333V21.2972ZM1.83333 3.08611V21.2972V3.08611Z" fill="#808080"/>
</svg>
