<svg width="22" height="18" viewBox="0 0 22 18" fill="none" xmlns="http://www.w3.org/2000/svg">
<path d="M1.65 17.6C1.21 17.6 0.825 17.435 0.495 17.105C0.165 16.775 0 16.39 0 15.95V1.65C0 1.21 0.165 0.825 0.495 0.495C0.825 0.165 1.21 0 1.65 0H20.35C20.79 0 21.175 0.165 21.505 0.495C21.835 0.825 22 1.21 22 1.65V15.95C22 16.39 21.835 16.775 21.505 17.105C21.175 17.435 20.79 17.6 20.35 17.6H1.65ZM11 9.295L1.65 3.1625V15.95H20.35V3.1625L11 9.295ZM11 7.645L20.24 1.65H1.7875L11 7.645ZM1.65 3.1625V1.65V15.95V3.1625Z" fill="#808080"/>
</svg>
