<svg width="22" height="22" viewBox="0 0 22 22" fill="none" xmlns="http://www.w3.org/2000/svg">
<path d="M6.545 18.8925H7.92V11.2475C8.45167 11.1742 8.90542 10.9313 9.28125 10.5188C9.65708 10.1062 9.845 9.63417 9.845 9.1025V4.8675C9.845 4.68417 9.78083 4.53292 9.6525 4.41375C9.52417 4.29458 9.36833 4.235 9.185 4.235C9.00167 4.235 8.85042 4.29458 8.73125 4.41375C8.61208 4.53292 8.5525 4.68417 8.5525 4.8675V8.1675H7.9475V4.8675C7.9475 4.68417 7.88792 4.53292 7.76875 4.41375C7.64958 4.29458 7.49833 4.235 7.315 4.235C7.13167 4.235 6.98042 4.29458 6.86125 4.41375C6.74208 4.53292 6.6825 4.68417 6.6825 4.8675V8.1675H5.885V4.8675C5.885 4.68417 5.82542 4.53292 5.70625 4.41375C5.58708 4.29458 5.43583 4.235 5.2525 4.235C5.06917 4.235 4.91792 4.29458 4.79875 4.41375C4.67958 4.53292 4.62 4.68417 4.62 4.8675V9.1025C4.62 9.63417 4.80333 10.1062 5.17 10.5188C5.53667 10.9313 5.995 11.1742 6.545 11.2475V18.8925ZM13.5025 18.8925H14.8775V11.5775C15.5192 11.3208 16.0233 10.8625 16.39 10.2025C16.7567 9.5425 16.94 8.7725 16.94 7.8925C16.94 6.8475 16.6879 5.97667 16.1838 5.28C15.6796 4.58333 15.0425 4.235 14.2725 4.235C13.5025 4.235 12.87 4.58333 12.375 5.28C11.88 5.97667 11.6325 6.8475 11.6325 7.8925C11.6325 8.8275 11.7975 9.61583 12.1275 10.2575C12.4575 10.8992 12.9158 11.3392 13.5025 11.5775V18.8925ZM1.65 22C1.21 22 0.825 21.835 0.495 21.505C0.165 21.175 0 20.79 0 20.35V1.65C0 1.21 0.165 0.825 0.495 0.495C0.825 0.165 1.21 0 1.65 0H20.35C20.79 0 21.175 0.165 21.505 0.495C21.835 0.825 22 1.21 22 1.65V20.35C22 20.79 21.835 21.175 21.505 21.505C21.175 21.835 20.79 22 20.35 22H1.65ZM1.65 20.35H20.35V1.65H1.65V20.35ZM1.65 20.35V1.65V20.35Z" fill="#808080"/>
</svg>
