<svg width="22" height="22" viewBox="0 0 22 22" fill="none" xmlns="http://www.w3.org/2000/svg">
<path d="M11 10.3125C9.4875 10.3125 8.25 9.83125 7.2875 8.86875C6.325 7.90625 5.84375 6.66875 5.84375 5.15625C5.84375 3.64375 6.325 2.40625 7.2875 1.44375C8.25 0.48125 9.4875 0 11 0C12.5125 0 13.75 0.48125 14.7125 1.44375C15.675 2.40625 16.1562 3.64375 16.1562 5.15625C16.1562 6.66875 15.675 7.90625 14.7125 8.86875C13.75 9.83125 12.5125 10.3125 11 10.3125ZM0 21.3469V18.1156C0 17.2448 0.217708 16.5 0.653125 15.8812C1.08854 15.2625 1.65 14.7927 2.3375 14.4719C3.87292 13.7844 5.34531 13.2687 6.75469 12.925C8.16406 12.5812 9.57917 12.4094 11 12.4094C12.4208 12.4094 13.8302 12.587 15.2281 12.9422C16.626 13.2974 18.0927 13.8073 19.6281 14.4719C20.3385 14.7927 20.9115 15.2625 21.3469 15.8812C21.7823 16.5 22 17.2448 22 18.1156V21.3469H0ZM2.0625 19.2844H19.9375V18.1156C19.9375 17.749 19.8286 17.3995 19.6109 17.0672C19.3932 16.7349 19.124 16.4885 18.8031 16.3281C17.3365 15.6177 15.9958 15.1307 14.7812 14.8672C13.5667 14.6036 12.3062 14.4719 11 14.4719C9.69375 14.4719 8.42188 14.6036 7.18438 14.8672C5.94688 15.1307 4.60625 15.6177 3.1625 16.3281C2.84167 16.4885 2.57812 16.7349 2.37187 17.0672C2.16562 17.3995 2.0625 17.749 2.0625 18.1156V19.2844ZM11 8.25C11.8938 8.25 12.6328 7.95781 13.2172 7.37344C13.8016 6.78906 14.0938 6.05 14.0938 5.15625C14.0938 4.2625 13.8016 3.52344 13.2172 2.93906C12.6328 2.35469 11.8938 2.0625 11 2.0625C10.1062 2.0625 9.36719 2.35469 8.78281 2.93906C8.19844 3.52344 7.90625 4.2625 7.90625 5.15625C7.90625 6.05 8.19844 6.78906 8.78281 7.37344C9.36719 7.95781 10.1062 8.25 11 8.25Z" fill="#1E1E1E"/>
</svg>
