<svg width="22" height="16" viewBox="0 0 22 16" fill="none" xmlns="http://www.w3.org/2000/svg">
<path d="M0 15.4548V13.1154C0 12.5347 0.149321 12.0079 0.447964 11.5351C0.746606 11.0622 1.16139 10.7097 1.69231 10.4774C2.90347 9.94646 3.99434 9.56486 4.96493 9.33258C5.93552 9.1003 6.93514 8.98416 7.9638 8.98416C8.99246 8.98416 9.98793 9.1003 10.9502 9.33258C11.9125 9.56486 12.9992 9.94646 14.2104 10.4774C14.7413 10.7097 15.1603 11.0622 15.4672 11.5351C15.7741 12.0079 15.9276 12.5347 15.9276 13.1154V15.4548H0ZM17.4208 15.4548V13.1154C17.4208 12.0701 17.1554 11.2115 16.6244 10.5396C16.0935 9.86765 15.3967 9.32429 14.5339 8.9095C15.6787 9.04223 16.7572 9.23718 17.7692 9.49435C18.7813 9.75151 19.6026 10.046 20.233 10.3778C20.7805 10.6931 21.2119 11.083 21.5272 11.5475C21.8424 12.0121 22 12.5347 22 13.1154V15.4548H17.4208ZM7.9638 7.46606C6.86878 7.46606 5.97285 7.11765 5.27602 6.42082C4.57919 5.72398 4.23077 4.82806 4.23077 3.73303C4.23077 2.63801 4.57919 1.74208 5.27602 1.04525C5.97285 0.348417 6.86878 0 7.9638 0C9.05882 0 9.95475 0.348417 10.6516 1.04525C11.3484 1.74208 11.6968 2.63801 11.6968 3.73303C11.6968 4.82806 11.3484 5.72398 10.6516 6.42082C9.95475 7.11765 9.05882 7.46606 7.9638 7.46606ZM16.9231 3.73303C16.9231 4.82806 16.5747 5.72398 15.8778 6.42082C15.181 7.11765 14.2851 7.46606 13.19 7.46606C13.0075 7.46606 12.8043 7.45362 12.5803 7.42873C12.3563 7.40385 12.1531 7.35822 11.9706 7.29186C12.3688 6.87708 12.6716 6.36689 12.879 5.76131C13.0864 5.15573 13.19 4.47964 13.19 3.73303C13.19 2.98643 13.0864 2.32692 12.879 1.75453C12.6716 1.18213 12.3688 0.655355 11.9706 0.174208C12.1531 0.124435 12.3563 0.0829565 12.5803 0.049774C12.8043 0.0165914 13.0075 0 13.19 0C14.2851 0 15.181 0.348417 15.8778 1.04525C16.5747 1.74208 16.9231 2.63801 16.9231 3.73303ZM1.49321 13.9615H14.4344V13.1154C14.4344 12.8499 14.3556 12.5928 14.198 12.3439C14.0403 12.095 13.8454 11.9208 13.6131 11.8213C12.4186 11.2903 11.4148 10.9336 10.6018 10.7511C9.78884 10.5686 8.9095 10.4774 7.9638 10.4774C7.0181 10.4774 6.13462 10.5686 5.31335 10.7511C4.49208 10.9336 3.48416 11.2903 2.28959 11.8213C2.05732 11.9208 1.86652 12.095 1.71719 12.3439C1.56787 12.5928 1.49321 12.8499 1.49321 13.1154V13.9615ZM7.9638 5.97285C8.61086 5.97285 9.14593 5.76131 9.56901 5.33824C9.99208 4.91516 10.2036 4.38009 10.2036 3.73303C10.2036 3.08597 9.99208 2.55091 9.56901 2.12783C9.14593 1.70475 8.61086 1.49321 7.9638 1.49321C7.31674 1.49321 6.78167 1.70475 6.3586 2.12783C5.93552 2.55091 5.72398 3.08597 5.72398 3.73303C5.72398 4.38009 5.93552 4.91516 6.3586 5.33824C6.78167 5.76131 7.31674 5.97285 7.9638 5.97285Z" fill="#808080"/>
</svg>
