<svg width="22" height="22" viewBox="0 0 22 22" fill="none" xmlns="http://www.w3.org/2000/svg">
<path d="M20.8101 22L18.0704 19.2604H2.73962V16.6591C2.73962 15.9581 2.91488 15.3585 3.26541 14.8604C3.61593 14.3623 4.06792 13.9841 4.62138 13.7258C5.7283 13.2277 6.79371 12.8403 7.81761 12.5635C8.84151 12.2868 9.87002 12.13 10.9031 12.0931L0 1.18994L1.18994 0L22 20.8101L20.8101 22ZM4.4 17.6H16.4101L12.5635 13.7535C12.4159 13.735 12.2591 13.7258 12.0931 13.7258H11.595C10.5434 13.7258 9.5195 13.8319 8.52327 14.044C7.52704 14.2562 6.4478 14.6482 5.28553 15.2201C5.02725 15.3493 4.81509 15.5476 4.64906 15.8151C4.48302 16.0826 4.4 16.3639 4.4 16.6591V17.6ZM18.5409 13.7258C19.1128 13.9841 19.574 14.3623 19.9245 14.8604C20.2751 15.3585 20.4503 15.9581 20.4503 16.6591V16.8805L16.4931 12.9233C16.8252 13.034 17.1618 13.1585 17.5031 13.2969C17.8444 13.4352 18.1904 13.5782 18.5409 13.7258ZM13.5321 9.96226L12.2038 8.63396C12.7572 8.50482 13.2092 8.21887 13.5597 7.7761C13.9103 7.33333 14.0855 6.81677 14.0855 6.22642C14.0855 5.52537 13.8457 4.93501 13.366 4.45535C12.8864 3.97568 12.296 3.73585 11.595 3.73585C11.0046 3.73585 10.4881 3.91111 10.0453 4.26163C9.60252 4.61216 9.31656 5.06415 9.18742 5.61761L7.85912 4.28931C8.20964 3.58826 8.72159 3.04403 9.39497 2.6566C10.0683 2.26918 10.8017 2.07547 11.595 2.07547C12.7572 2.07547 13.7396 2.47673 14.5421 3.27925C15.3447 4.08176 15.7459 5.06415 15.7459 6.22642C15.7459 7.01971 15.5522 7.75304 15.1648 8.42641C14.7774 9.09979 14.2331 9.61174 13.5321 9.96226ZM16.4101 17.6H4.4H16.4101Z" fill="#808080"/>
</svg>
